<svg width="17" height="17" viewBox="0 0 17 17" fill="none" xmlns="http://www.w3.org/2000/svg">
<rect x="0.62397" y="5.99165" width="3.74382" height="9.98351" rx="0.62397" stroke="white" stroke-width="1.24794"/>
<path d="M4.36768 6.61114C5.09956 6.32651 6.83728 5.35342 7.17324 3.56161C7.53919 1.60991 8.27108 1 9.00296 1C9.61287 1 10.8327 1.36594 10.8327 3.68359C10.8327 5.5377 9.93815 6.16387 9.49089 6.24519L13.2723 6.00123C13.8416 5.96057 15.0776 5.97683 15.468 6.36717C15.9559 6.8551 16.0779 7.34302 15.9559 7.95293C15.8583 8.44085 15.1833 11.9783 14.8581 13.686C14.8174 14.0113 14.6629 14.7351 14.3701 15.0278C14.0042 15.3938 13.7602 15.6377 12.9064 15.6377C12.2233 15.6377 6.92928 15.6377 4.36768 15.6377" stroke="white" stroke-width="1.24794" stroke-linejoin="round"/>
</svg>
