<svg width="42" height="33" viewBox="0 0 42 33" fill="none" xmlns="http://www.w3.org/2000/svg">
<g clip-path="url(#clip0)">
<path fill-rule="evenodd" clip-rule="evenodd" d="M7.65009 13.272V30.3167C7.63576 30.7177 7.71471 31.1166 7.88085 31.4824C8.04699 31.8482 8.29583 32.171 8.60805 32.4259C8.92027 32.6808 9.28749 32.8608 9.68117 32.952C10.0749 33.0433 10.4844 33.0432 10.8781 32.9519L38.7879 28.0659C39.674 27.8915 40.4749 27.4253 41.0608 26.7428C41.6467 26.0603 41.9832 25.2015 42.0159 24.3054V7.26474C42.0304 6.86384 41.9515 6.46501 41.7854 6.09932C41.6192 5.73362 41.3703 5.41093 41.0579 5.15633C40.7456 4.90173 40.3782 4.72209 39.9845 4.63142C39.5908 4.54075 39.1813 4.5415 38.7879 4.63357L10.8781 9.51547C9.99259 9.68972 9.19221 10.1553 8.60643 10.837C8.02064 11.5187 7.68371 12.3767 7.65009 13.272Z" fill="#34343D"/>
<path fill-rule="evenodd" clip-rule="evenodd" d="M19.658 7.97375L7.66608 12.9798C7.66608 13.0759 7.66608 13.176 7.66608 13.2722V30.3168C7.65154 30.6831 7.7157 31.0482 7.85428 31.3879C7.99287 31.7277 8.20271 32.0343 8.46987 32.2873C8.73703 32.5403 9.0554 32.7341 9.4038 32.8556C9.75219 32.9771 10.1226 33.0236 10.4906 32.9921L33.8934 24.9303C34.7396 24.6822 35.4822 24.169 36.0102 23.4673C36.5382 22.7657 36.8232 21.9133 36.8228 21.0376V4.97412L19.658 7.97375Z" fill="#1F1F26"/>
<path fill-rule="evenodd" clip-rule="evenodd" d="M-0.000258961 8.69391V25.7386C-0.0147745 26.1395 0.0641473 26.5383 0.230304 26.904C0.39646 27.2697 0.645403 27.5924 0.957751 27.847C1.2701 28.1016 1.63739 28.2812 2.03112 28.3719C2.42484 28.4626 2.83433 28.4618 3.22772 28.3698L31.1336 23.4879C32.0197 23.3135 32.8205 22.8472 33.4064 22.1647C33.9923 21.4822 34.3288 20.6233 34.3616 19.7273V2.68267C34.3751 2.28191 34.2956 1.88341 34.1292 1.51802C33.9628 1.15263 33.7139 0.830139 33.4019 0.575424C33.0899 0.320708 32.7231 0.1406 32.3297 0.0490534C31.9364 -0.0424927 31.5272 -0.0430508 31.1336 0.0474401L3.22772 4.93339C2.34127 5.10714 1.54004 5.57314 0.954057 6.2558C0.368078 6.93846 0.0317589 7.79765 -0.000258961 8.69391Z" fill="#0F0F15"/>
</g>
<defs>
<clipPath id="clip0">
<rect width="42" height="33" fill="white"/>
</clipPath>
</defs>
</svg>
