<?xml version="1.0" standalone="no"?>
<!DOCTYPE svg PUBLIC "-//W3C//DTD SVG 20010904//EN"
 "http://www.w3.org/TR/2001/REC-SVG-20010904/DTD/svg10.dtd">
<svg version="1.0" xmlns="http://www.w3.org/2000/svg"
 width="1224.000000pt" height="1224.000000pt" viewBox="0 0 1224.000000 1224.000000"
 preserveAspectRatio="xMidYMid meet">
<metadata>
Created by potrace 1.14, written by Peter Selinger 2001-2017
</metadata>
<g transform="translate(0.000000,1224.000000) scale(0.100000,-0.100000)"
fill="#000000" stroke="none">
<path d="M5020 10199 c-2473 -433 -4139 -730 -4190 -745 -436 -133 -758 -505
-819 -948 -8 -54 -11 -867 -11 -2626 0 -2763 -3 -2621 53 -2760 41 -101 88
-171 172 -255 115 -114 230 -177 384 -210 103 -22 218 -19 372 10 286 52 1226
215 1243 215 16 0 17 -31 16 -462 -1 -433 0 -468 19 -539 55 -213 209 -400
404 -493 96 -46 173 -65 287 -72 l95 -6 3473 1196 c1910 658 3501 1209 3536
1225 148 67 308 193 412 325 117 147 180 272 231 458 l28 103 3 2428 2 2427
-22 -5 c-58 -13 -658 -115 -677 -115 l-21 0 0 458 c0 425 -1 465 -20 538 -69
272 -282 485 -554 554 -59 15 -109 20 -195 19 -106 -1 -472 -64 -4221 -720z"/>
</g>
</svg>
