<svg width="28" height="27" viewBox="0 0 28 27" fill="none" xmlns="http://www.w3.org/2000/svg">
<path d="M13.5296 1.30435C13.6885 0.863833 14.3115 0.863834 14.4704 1.30435L17.4997 9.70525C17.5692 9.898 17.7493 10.0288 17.9541 10.0354L26.88 10.3205C27.348 10.3354 27.5406 10.9279 27.1707 11.2151L20.1171 16.6923C19.9552 16.818 19.8865 17.0297 19.9435 17.2265L22.4306 25.8035C22.561 26.2533 22.057 26.6195 21.6696 26.3565L14.2808 21.3406C14.1113 21.2256 13.8887 21.2256 13.7192 21.3406L6.33042 26.3565C5.94298 26.6195 5.43896 26.2533 5.56938 25.8035L8.05647 17.2264C8.11354 17.0297 8.04475 16.818 7.88291 16.6923L0.829318 11.2151C0.459447 10.9279 0.651965 10.3354 1.12001 10.3205L10.0459 10.0354C10.2507 10.0288 10.4308 9.898 10.5003 9.70525L13.5296 1.30435Z" fill="#836EFF"/>
</svg>
